<?xml version="1.0" encoding="utf-8"?>
<!-- Generator: Adobe Illustrator 25.0.1, SVG Export Plug-In . SVG Version: 6.00 Build 0)  -->
<svg version="1.0"
	 id="Layer_1" xmlns:cc="http://creativecommons.org/ns#" xmlns:dc="http://purl.org/dc/elements/1.1/" xmlns:rdf="http://www.w3.org/1999/02/22-rdf-syntax-ns#" xmlns:svg="http://www.w3.org/2000/svg"
	 xmlns="http://www.w3.org/2000/svg" xmlns:xlink="http://www.w3.org/1999/xlink" x="0px" y="0px" viewBox="0 0 827 483"
	 style="enable-background:new 0 0 827 483;" xml:space="preserve">
<style type="text/css">
	.st0{fill:#CCCCCC;}
	.st1{fill:#A6120D;}
	.st2{fill:#B3B3B3;}
	.st3{fill:#DD1B16;}
	.st4{fill:#F2F2F2;}
</style>
<g id="g12">
	<polygon id="polygon14" class="st0" points="255.9,210.2 299.2,267.2 299.2,210.2 307.9,210.2 307.9,281 298.7,281 255.4,223.5 
		255.4,281 246.7,281 246.7,210.2 	"/>
	<path id="path16" class="st0" d="M378.2,278.2c-5.7,2.2-11.9,3.3-18.5,3.3c-25.6,0-38.5-12.3-38.5-36.9c0-23.3,12.4-34.9,37.1-34.9
		c7.1,0,13.7,1,19.8,3v7.9c-6.1-2.3-12.4-3.5-18.8-3.5c-19.3,0-29,9.2-29,27.5c0,19.6,9.5,29.5,28.5,29.5c3,0,6.4-0.4,10.1-1.2
		v-24.1h9.2L378.2,278.2L378.2,278.2L378.2,278.2z"/>
	<path id="path18" class="st0" d="M392.8,253.7v-43.5h9.2v43.5c0,13.6,6.8,20.4,20.3,20.4c13.5,0,20.3-6.8,20.3-20.4v-43.5h9.2v43.5
		c0,18.6-9.8,27.8-29.5,27.8C402.6,281.5,392.8,272.2,392.8,253.7z"/>
	<polygon id="polygon20" class="st0" points="514.3,273.6 514.3,281 468.1,281 468.1,210.2 477.2,210.2 477.2,273.6 	"/>
	<polygon id="polygon22" class="st0" points="553.2,200.9 588.4,281 578.2,281 569.1,258.7 545.6,258.7 548.2,251.3 566,251.3 
		552.8,219.2 527.5,281 518,281 	"/>
	<path id="path24" class="st0" d="M598,281v-70.8h30.2c13.5,0,20.2,5.7,20.2,17c0,9.2-6.6,16-19.8,20.4L653,281h-12.1l-22.5-31.8v-6
		c13.5-2.2,20.3-7.3,20.3-15.6c0-6.5-3.8-9.8-11.3-9.8h-20.2V281L598,281L598,281L598,281L598,281z"/>
	<path id="path26" class="st0" d="M687.3,210.2v50.4c0,13.6-8,20.4-24,20.4v-7.4c9.9,0,14.9-4.3,14.9-13v-50.4H687.3L687.3,210.2z"
		/>
	<path id="path28" class="st0" d="M703.6,278.5v-8.4c7.4,2.6,15.4,4,24.1,4c12.2,0,18.3-4.5,18.3-13.4c0-7.6-4.5-11.4-13.5-11.4
		h-9.1c-14.8,0-22.2-6.4-22.2-19.3c0-13.5,9.5-20.3,28.5-20.3c8.2,0,15.9,1,23,3v8.4c-7.1-2.6-14.8-4-23-4
		c-12.9,0-19.3,4.3-19.3,12.9c0,7.6,4.4,11.4,13.1,11.4h9.1c15.1,0,22.6,6.4,22.6,19.3c0,13.9-9.1,20.8-27.4,20.8
		C719.1,281.5,711.1,280.5,703.6,278.5L703.6,278.5z"/>
	<polygon id="polygon30" points="258.2,207.9 301.5,264.9 301.5,207.9 310.2,207.9 310.2,278.7 301.1,278.7 257.7,221.2 
		257.7,278.7 249.1,278.7 249.1,207.9 	"/>
	<path id="path32" d="M380.5,275.9c-5.7,2.2-11.9,3.3-18.5,3.3c-25.6,0-38.5-12.3-38.5-36.9c0-23.3,12.4-34.9,37.1-34.9
		c7.1,0,13.7,1,19.8,3v7.9c-6.1-2.3-12.4-3.5-18.8-3.5c-19.3,0-29,9.2-29,27.5c0,19.6,9.5,29.5,28.5,29.5c3,0,6.4-0.4,10.1-1.2
		v-24.1h9.2L380.5,275.9C380.5,275.9,380.5,275.9,380.5,275.9z"/>
	<path id="path34" d="M395.1,251.4v-43.5h9.2v43.5c0,13.6,6.8,20.4,20.3,20.4c13.5,0,20.3-6.8,20.3-20.4v-43.5h9.2v43.5
		c0,18.6-9.8,27.8-29.5,27.8C404.9,279.2,395.1,269.9,395.1,251.4L395.1,251.4z"/>
	<polygon id="polygon36" points="516.6,271.3 516.6,278.7 470.4,278.7 470.4,207.9 479.5,207.9 479.5,271.3 	"/>
	<polygon id="polygon38" points="555.5,198.6 590.7,278.7 580.5,278.7 571.4,256.4 548,256.4 550.5,249 568.3,249 555.1,216.9 
		529.8,278.7 520.3,278.7 	"/>
	<path id="path40" d="M600.3,278.7v-70.8h30.2c13.5,0,20.2,5.7,20.2,17c0,9.2-6.6,16-19.7,20.4l24.3,33.4h-12.1l-22.5-31.8v-6
		c13.5-2.2,20.3-7.3,20.3-15.6c0-6.5-3.8-9.8-11.3-9.8h-20.2v63.2H600.3z"/>
	<path id="path42" class="st1" d="M689.6,207.9v50.4c0,13.6-8,20.4-24,20.4v-7.4c9.9,0,14.9-4.3,14.9-13v-50.4H689.6z"/>
	<path id="path44" class="st1" d="M706,276.2v-8.4c7.4,2.6,15.4,4,24.1,4c12.2,0,18.3-4.5,18.3-13.4c0-7.6-4.5-11.4-13.5-11.4h-9.1
		c-14.8,0-22.2-6.4-22.2-19.3c0-13.5,9.5-20.3,28.5-20.3c8.2,0,15.9,1,23,3v8.4c-7.1-2.6-14.8-4-23-4c-12.9,0-19.3,4.3-19.3,12.9
		c0,7.6,4.4,11.4,13.1,11.4h9.1c15.1,0,22.6,6.4,22.6,19.3c0,13.9-9.1,20.8-27.4,20.8C721.4,279.2,713.4,278.2,706,276.2L706,276.2z
		"/>
	<path id="path46" d="M621.4,316.5l-3.4-10.2h-2.4l4.6,12.9c-0.1,0.3-0.3,0.7-0.5,1.3c-0.2,0.6-0.4,0.9-0.4,1
		c-0.1,0.2-0.3,0.3-0.5,0.5c-0.2,0.1-0.5,0.2-0.9,0.2c-0.1,0-0.3,0-0.4,0c-0.2,0-0.4-0.1-0.8-0.2v1.9c0.2,0.1,0.4,0.1,0.6,0.1
		c0.2,0,0.4,0,0.7,0c1.2,0,2.1-0.4,2.6-1.1c0.5-0.7,1.4-2.7,2.6-5.9c0.5-1.4,1.2-3.1,1.9-5.3c1-2.9,1.7-4.7,2-5.5h-2.3L621.4,316.5
		L621.4,316.5z M608.9,317.4c-1.5,0-2.6-0.7-3.1-2.1c-0.3-0.7-0.4-1.7-0.4-2.9c0-1.6,0.4-2.8,1.1-3.5c0.7-0.7,1.6-1.1,2.5-1.1
		c1.1,0,1.9,0.4,2.5,1.3c0.6,0.9,0.9,2,0.9,3.3c0,1.5-0.3,2.7-0.9,3.6C610.9,316.9,610,317.4,608.9,317.4z M603.4,318.8h1.9v-1.6
		c0.4,0.6,0.9,1,1.3,1.3c0.7,0.5,1.5,0.7,2.4,0.7c1.7,0,3-0.7,4-2c1-1.3,1.4-3,1.4-4.9c0-2.1-0.5-3.7-1.5-4.8
		c-1-1.1-2.2-1.6-3.8-1.6c-0.8,0-1.5,0.2-2.1,0.5c-0.6,0.3-1.2,0.8-1.7,1.4v-6.2h-2.1L603.4,318.8L603.4,318.8L603.4,318.8z"/>
</g>
<g id="g48">
	<polygon id="polygon50" class="st2" points="83.1,290.8 152.8,329.1 222.9,290.3 236,182 152.7,153.4 70.1,182.5 	"/>
	<polygon id="polygon52" class="st1" points="152.6,320 215.5,285.1 227.7,188.2 152.6,162.6 	"/>
	<polygon id="polygon54" class="st3" points="152.5,320 152.5,162.6 79.3,188.7 90.5,285.6 	"/>
	<path id="path56" class="st4" d="M173.2,246.4l-20.7,9.7h-21.8l-10.3,25.6l-19.1,0.4l51.1-113.7L173.2,246.4z M171.2,241.5
		l-18.6-36.7l-15.2,36.1h15.1L171.2,241.5z"/>
	<polygon id="polygon58" class="st2" points="170,240.9 152.6,240.9 152.5,256 176.6,256 187.8,282 206,282.4 152.5,168.3 
		152.7,204.8 	"/>
</g>
<g id="g34">
	<path id="path36" d="M686.3,309.7c0,5.6-4.4,9.7-9.7,9.7c-5.3,0-9.7-4.1-9.7-9.7c0-5.6,4.4-9.7,9.7-9.7
		C682,300.1,686.3,304.1,686.3,309.7z M682.1,309.7c0-3.5-2.5-5.9-5.5-5.9s-5.5,2.4-5.5,5.9c0,3.4,2.5,5.9,5.5,5.9
		S682.1,313.2,682.1,309.7z"/>
	<path id="path38" d="M707.3,309.7c0,5.6-4.4,9.7-9.7,9.7s-9.7-4.1-9.7-9.7c0-5.6,4.4-9.7,9.7-9.7S707.3,304.1,707.3,309.7z
		 M703,309.7c0-3.5-2.5-5.9-5.5-5.9s-5.5,2.4-5.5,5.9c0,3.4,2.5,5.9,5.5,5.9S703,313.2,703,309.7z"/>
	<path id="path41" d="M727.3,300.7V318c0,7.1-4.2,10.1-9.2,10.1c-4.7,0-7.5-3.1-8.6-5.7l3.7-1.5c0.7,1.6,2.3,3.4,4.9,3.4
		c3.2,0,5.2-2,5.2-5.7v-1.4h-0.1c-1,1.2-2.8,2.2-5.1,2.2c-4.8,0-9.3-4.2-9.3-9.6c0-5.5,4.4-9.7,9.3-9.7c2.3,0,4.1,1,5.1,2.2h0.1
		v-1.6L727.3,300.7L727.3,300.7z M723.6,309.8c0-3.4-2.3-5.9-5.2-5.9c-2.9,0-5.4,2.5-5.4,5.9c0,3.4,2.5,5.8,5.4,5.8
		C721.3,315.6,723.6,313.1,723.6,309.8z"/>
	<path id="path43" d="M734,290.5v28.3h-4.1v-28.3H734z"/>
	<path id="path45" d="M750.1,312.9l3.3,2.2c-1.1,1.6-3.6,4.3-8.1,4.3c-5.5,0-9.6-4.2-9.6-9.7c0-5.7,4.1-9.7,9.1-9.7
		c5,0,7.5,4,8.3,6.2l0.4,1.1l-12.9,5.4c1,1.9,2.5,2.9,4.7,2.9C747.5,315.6,749,314.5,750.1,312.9L750.1,312.9z M740,309.4l8.6-3.6
		c-0.5-1.2-1.9-2-3.6-2C742.9,303.8,739.8,305.7,740,309.4z"/>
	<path id="path47" d="M651.3,307.2v-4.1h13.8c0.1,0.7,0.2,1.6,0.2,2.5c0,3.1-0.8,6.9-3.6,9.6c-2.6,2.7-6,4.2-10.5,4.2
		c-8.3,0-15.2-6.7-15.2-15s7-15,15.2-15c4.6,0,7.8,1.8,10.3,4.1l-2.9,2.9c-1.8-1.6-4.1-2.9-7.4-2.9c-6,0-10.8,4.9-10.8,10.9
		s4.7,10.9,10.8,10.9c3.9,0,6.2-1.6,7.6-3c1.2-1.2,1.9-2.8,2.2-5.1L651.3,307.2L651.3,307.2z"/>
</g>
</svg>
